# xmcd
#
# Track frame offsets: 
#        217
#        16707
#        37530
#        62070
#        79972
#        108732
#        126615
#        144062
#        162057
#        176462
#
# Disc length: 2898 seconds
#
# Revision: 6
# Processed by: cddbd v1.5.1PL0 Copyright (c) Steve Scherf et al.
# Submitted via: ExactAudioCopy v0.95a5
#
DISCID=750b500a
DTITLE=Various Artist - Nasty Blues, Volume 3
DYEAR=1992
DGENRE=Blues
TTITLE0=Travis Haddix - Jawbreaker
TTITLE1=Clarence Carter - I Feel It
TTITLE2=Chick Willis - That's How Much I Love You
TTITLE3=Dicky Williams - The Same Motel
TTITLE4=Theodis Ealey with the Shadows - Drivin' Wheel
TTITLE5=Shadows - Kill the Ice Cream Man
TTITLE6=Gary B. B. Coleman - Uncle Bud
TTITLE7=Clarence Carter - Let's Funk
TTITLE8=Dicky Williams - I Want You for Breakfast
TTITLE9=Trydy Lynn with the Shadows - Cold, Cold Feelin'
EXTD=LABEL =Ichiban Records, Inc.\nID =ICH1148CD\nUPC =019011-1148-
EXTD=28\nCOPYRIGHT =1992
EXTT0=
EXTT1=
EXTT2=
EXTT3=
EXTT4=
EXTT5=
EXTT6=
EXTT7=
EXTT8=
EXTT9=
PLAYORDER=
